# xmcd
#
# Track frame offsets: 
#        150
#        28194
#        49735
#        75935
#        98060
#        126475
#        156545
#        176560
#
# Disc length: 2676 seconds
#
# Revision: 0
# Processed by: cddbd v1.5.1PL0 Copyright (c) Steve Scherf et al.
# Submitted via: ExactAudioCopy v0.95a5
#
DISCID=630a7208
DTITLE=Sugar Bear - Guitar Playing Man
DYEAR=1996
DGENRE=Blues
TTITLE0=Caught In The Middle
TTITLE1=Got A Thing Going On
TTITLE2=She's Wonderful To Me
TTITLE3=Juicy
TTITLE4=Guitar Playing Man
TTITLE5=Janice
TTITLE6=You Give Me The Blues
TTITLE7=Story Of A Broken Heart
EXTD=
EXTT0=
EXTT1=
EXTT2=
EXTT3=
EXTT4=
EXTT5=
EXTT6=
EXTT7=
PLAYORDER=
